<svg width="121" height="120" viewBox="0 0 121 120" fill="none" xmlns="http://www.w3.org/2000/svg">
<rect width="120" height="120" transform="translate(0.859375)" fill="#10C738"/>
<path d="M53.0693 44.1875L46.3609 50.8667L42.3359 46.8417" stroke="white" stroke-width="4" stroke-linecap="round" stroke-linejoin="round"/>
<path d="M63.1314 42.4991C60.7105 33.9532 51.8439 29.0241 43.3272 31.4157C34.7814 33.8074 29.8522 42.6741 32.2439 51.1907C33.7605 56.5282 37.9314 60.7282 43.298 62.2449" stroke="white" stroke-width="4" stroke-linecap="round" stroke-linejoin="round"/>
<path d="M72.5234 86.2531V79.5156" stroke="white" stroke-width="4" stroke-linecap="round" stroke-linejoin="round"/>
<path d="M55.0234 86.25H90.0234" stroke="white" stroke-width="4" stroke-linecap="round" stroke-linejoin="round"/>
<path d="M57.9062 68.1406V86.224" stroke="white" stroke-width="4" stroke-linecap="round" stroke-linejoin="round"/>
<path d="M87.0781 86.224V68.1406" stroke="white" stroke-width="4" stroke-linecap="round" stroke-linejoin="round"/>
<path d="M60.3938 68.7524L60.3646 68.7494C57.3896 68.7203 54.9688 66.3286 54.9688 63.3536C54.9688 62.5078 55.1438 61.6911 55.5229 60.9328L57.2729 57.3744H57.2438C58.2354 55.3619 60.2771 54.0786 62.5229 54.0786H82.2396H82.2104C84.4271 54.0494 86.4687 55.3328 87.4896 57.3161L89.2396 60.8161C90.5812 63.4703 89.5021 66.7078 86.8479 68.0494C86.0896 68.4286 85.2437 68.6036 84.3979 68.6036L84.3687 68.6007C81.7146 68.5715 79.3521 66.8507 78.5646 64.3424C78.5062 64.1674 78.3604 64.0799 78.2146 64.109C78.0979 64.109 78.0104 64.1965 77.9813 64.3132V64.284C76.9604 67.4632 73.5771 69.2424 70.3688 68.2507C68.4438 67.6382 66.9563 66.1507 66.3729 64.2549C66.3146 64.0799 66.1688 63.9924 66.0229 64.0215C65.9063 64.0215 65.8187 64.109 65.7896 64.2257V64.1965C64.9729 66.7049 62.6396 68.4257 59.9854 68.4257L60.3938 68.7524Z" stroke="white" stroke-width="4" stroke-linecap="round" stroke-linejoin="round"/>
</svg>
