<svg width="155" height="54" viewBox="0 0 155 54" fill="none" xmlns="http://www.w3.org/2000/svg">
<rect x="0.515437" y="0.515437" width="36.9506" height="36.9509" rx="6.35705" stroke="white" stroke-width="1.03087"/>
<path fill-rule="evenodd" clip-rule="evenodd" d="M19.0237 5.01562L13.3047 10.4997V32.2762H24.6788V10.0083L19.0237 5.01562ZM17.4324 18.3633V20.8679H14.9277V18.3633H17.4324ZM23.0297 18.3633V20.8679H20.525V18.3633H23.0297ZM23.0297 26.4649V23.9603H20.525V26.4649H23.0297ZM17.4324 23.9603V26.4649H14.9277V23.9603H17.4324Z" fill="white"/>
<path fill-rule="evenodd" clip-rule="evenodd" d="M6.507 18.3881H2.71875L8.86672 13.3322V5.9396H14.3352V8.83519L18.9798 5.01562L35.2408 18.3881H31.4519V32.276H6.507V18.3881ZM13.3043 6.97042V9.68294V11.0176L18.9798 6.35027L32.3644 17.3573H30.421V31.2452H7.53787V17.3573H5.59517L9.89759 13.8191V12.4845V6.97042H13.3043Z" fill="white"/>
<rect x="39.4998" y="0.515437" width="36.9506" height="36.9509" rx="6.35705" stroke="white" stroke-width="1.03087"/>
<path fill-rule="evenodd" clip-rule="evenodd" d="M70.4351 17.2812H45.5234V32.2236H70.4351V17.2812ZM62.018 18.3125V20.8171H59.5133V18.3125H62.018ZM56.4207 18.3125V20.8171H53.916V18.3125H56.4207ZM62.018 26.4141V23.9095H59.5133V26.4141H62.018ZM56.4207 23.9095V26.4141H53.916V23.9095H56.4207Z" fill="white"/>
<path fill-rule="evenodd" clip-rule="evenodd" d="M45.4914 18.3412H41.7031L47.8511 13.2854V5.89272H53.3195V8.78832L57.9642 4.96875L74.2252 18.3412H70.4363V32.2291H45.4914V18.3412ZM52.2887 6.92354V9.63607V10.9707L57.9642 6.30339L71.3488 17.3104H69.4054V31.1983H46.5222V17.3104H44.5795L48.882 13.7723V12.4376V6.92354H52.2887Z" fill="white"/>
<rect x="78.4764" y="0.515437" width="36.9506" height="36.9509" rx="6.35705" stroke="white" stroke-width="1.03087"/>
<path fill-rule="evenodd" clip-rule="evenodd" d="M95.4106 20.801V18.2964H92.9059V20.801H95.4106ZM96.4414 17.2656H91.875V21.8318H96.4414V17.2656Z" fill="white"/>
<path fill-rule="evenodd" clip-rule="evenodd" d="M101.004 20.801V18.2964H98.4996V20.801H101.004ZM102.035 17.2656H97.4688V21.8318H102.035V17.2656Z" fill="white"/>
<path fill-rule="evenodd" clip-rule="evenodd" d="M101.004 26.3948V23.8902H98.4996V26.3948H101.004ZM102.035 22.8594H97.4688V27.4256H102.035V22.8594Z" fill="white"/>
<path fill-rule="evenodd" clip-rule="evenodd" d="M95.4106 26.3948V23.8902H92.9059V26.3948H95.4106ZM96.4414 22.8594H91.875V27.4256H96.4414V22.8594Z" fill="white"/>
<path fill-rule="evenodd" clip-rule="evenodd" d="M95.4106 18.2964V20.801H92.9059V18.2964H95.4106ZM91.875 17.2656H96.4414V21.8318H91.875V17.2656ZM101.008 18.2964V20.801H98.5032V18.2964H101.008ZM97.4723 17.2656H102.039V21.8318H97.4723V17.2656ZM101.008 25.2656V23.8935H98.5032V25.2656H97.4723V22.8627H102.039V25.2656H101.008ZM91.875 25.2656V22.8627H96.4414V25.2656H95.4106V23.8935H92.9059V25.2656H91.875Z" fill="white"/>
<path fill-rule="evenodd" clip-rule="evenodd" d="M84.4836 18.3178H80.6953L86.8433 13.2619V5.86928H92.3117V8.76488L96.9564 4.94531L113.217 18.3178H109.428V32.2057H84.4836V18.3178ZM91.2809 6.9001V9.61263V10.9473L96.9564 6.27995L110.341 17.287H108.398V31.1749H85.5144V17.287H83.5717L87.8742 13.7488V12.4142V6.9001H91.2809Z" fill="white"/>
<path d="M102.041 25.2656H109.427V32.2066H84.5156V25.2656H91.877V27.4275H96.4434V25.2656H97.4743V27.4275H102.041V25.2656Z" fill="white"/>
<path d="M117.461 6.87249C117.461 3.36158 120.307 0.515437 123.818 0.515437H148.054C151.565 0.515437 154.411 3.36159 154.411 6.87249V31.1093C154.411 34.6202 151.565 37.4664 148.054 37.4664H123.818C120.307 37.4664 117.461 34.6202 117.461 31.1093V6.87249Z" stroke="white" stroke-width="1.03087"/>
<path fill-rule="evenodd" clip-rule="evenodd" d="M134.082 20.0979V17.5933H131.578V20.0979H134.082ZM135.113 16.5625H130.547V21.1287H135.113V16.5625Z" fill="white"/>
<path fill-rule="evenodd" clip-rule="evenodd" d="M140.082 20.0979V17.5933H137.578V20.0979H140.082ZM141.113 16.5625H136.547V21.1287H141.113V18.8456V16.5625Z" fill="white"/>
<path fill-rule="evenodd" clip-rule="evenodd" d="M123.46 18.3412H119.672L125.82 13.2854V5.89272H131.288V8.78832L135.933 4.96875L152.194 18.3412H148.405V32.2291H123.46V18.3412ZM130.257 6.92354V9.63607V10.9707L135.933 6.30339L149.318 17.3104H147.374V31.1983H124.491V17.3104H122.548L126.851 13.7723V12.4376V6.92354H130.257Z" fill="white"/>
<path d="M141.017 22.3287H148.404V32.2308H123.492L123.492 22.3287H130.854V22.6726V23.0165V27.4517H135.42V23.0165H130.854V22.6726V22.3287H135.42H136.451L141.017 22.3281V23.0165H136.451V27.4517H141.017V23.0165V22.3287Z" fill="white"/>
<path d="M5.3591 43.9888V45.1695H1.7678V51.7637H0.359375V43.9888H5.3591Z" fill="white"/>
<path d="M6.06912 51.7637V43.9888H8.98468C9.58196 43.9888 10.0831 44.1002 10.488 44.3229C10.8955 44.5456 11.203 44.8519 11.4105 45.2416C11.6206 45.6288 11.7256 46.0692 11.7256 46.5627C11.7256 47.0613 11.6206 47.5042 11.4105 47.8915C11.2004 48.2787 10.8904 48.5837 10.4804 48.8064C10.0704 49.0266 9.56551 49.1367 8.9657 49.1367H7.03338V47.9788H8.77588C9.12514 47.9788 9.41113 47.918 9.63385 47.7965C9.85656 47.6751 10.0211 47.508 10.1274 47.2954C10.2362 47.0828 10.2906 46.8386 10.2906 46.5627C10.2906 46.2869 10.2362 46.0439 10.1274 45.8338C10.0211 45.6238 9.8553 45.4605 9.63005 45.3441C9.40733 45.2252 9.12008 45.1657 8.76829 45.1657H7.47755V51.7637H6.06912Z" fill="white"/>
<path d="M13.1626 51.87V50.6856H13.6068C13.8067 50.6856 13.9712 50.6564 14.1003 50.5982C14.2294 50.54 14.3331 50.4565 14.4116 50.3477C14.4926 50.2389 14.5597 50.1123 14.6128 49.968L14.7153 49.7061L11.9364 43.9888H13.4094L15.3455 48.1496L17.0197 43.9888H18.4698L15.7897 50.3287C15.6656 50.602 15.5227 50.8564 15.3607 51.0918C15.1987 51.3246 14.9874 51.5132 14.7267 51.6574C14.4685 51.7991 14.1319 51.87 13.7169 51.87H13.1626Z" fill="white"/>
<path d="M25.3356 43.9888V51.7637H23.9385V45.1581H20.537V51.7637H19.14V43.9888H25.3356Z" fill="white"/>
<path d="M32.8827 43.9888V51.7637H31.4857V45.1581H28.0842V51.7637H26.6872V43.9888H32.8827Z" fill="white"/>
<path d="M35.0847 51.7637H33.5813L36.3185 43.9888H38.0572L40.7981 51.7637H39.2948L37.2182 45.5833H37.1575L35.0847 51.7637ZM35.134 48.7153H39.234V49.8466H35.134V48.7153Z" fill="white"/>
<path d="M48.1698 51.7637L45.6111 48.366H44.9202V51.7637H43.5117V43.9888H44.9202V47.1853H45.2732L48.0369 43.9888H49.7718L46.7006 47.5346L49.9047 51.7637H48.1698Z" fill="white"/>
<path d="M56.9099 47.8763C56.9099 48.714 56.753 49.4315 56.4392 50.0288C56.1279 50.6235 55.7027 51.0791 55.1637 51.3955C54.6271 51.7118 54.0184 51.87 53.3376 51.87C52.6568 51.87 52.0469 51.7118 51.5078 51.3955C50.9713 51.0766 50.5461 50.6198 50.2323 50.025C49.921 49.4277 49.7653 48.7115 49.7653 47.8763C49.7653 47.0385 49.921 46.3223 50.2323 45.7276C50.5461 45.1303 50.9713 44.6734 51.5078 44.3571C52.0469 44.0407 52.6568 43.8825 53.3376 43.8825C54.0184 43.8825 54.6271 44.0407 55.1637 44.3571C55.7027 44.6734 56.1279 45.1303 56.4392 45.7276C56.753 46.3223 56.9099 47.0385 56.9099 47.8763ZM55.4939 47.8763C55.4939 47.2866 55.4016 46.7893 55.2168 46.3843C55.0346 45.9768 54.7815 45.6693 54.4575 45.4618C54.1336 45.2517 53.7603 45.1467 53.3376 45.1467C52.915 45.1467 52.5417 45.2517 52.2177 45.4618C51.8938 45.6693 51.6394 45.9768 51.4547 46.3843C51.2724 46.7893 51.1813 47.2866 51.1813 47.8763C51.1813 48.466 51.2724 48.9646 51.4547 49.372C51.6394 49.777 51.8938 50.0845 52.2177 50.2945C52.5417 50.5021 52.915 50.6058 53.3376 50.6058C53.7603 50.6058 54.1336 50.5021 54.4575 50.2945C54.7815 50.0845 55.0346 49.777 55.2168 49.372C55.4016 48.9646 55.4939 48.466 55.4939 47.8763Z" fill="white"/>
<path d="M57.7604 43.9888H59.4839L61.7921 49.6226H61.8832L64.1914 43.9888H65.9149V51.7637H64.5634V46.4223H64.4913L62.3426 51.7409H61.3327L59.184 46.4109H59.1119V51.7637H57.7604V43.9888Z" fill="white"/>
<path d="M73.3111 43.9888V51.7637H71.9141V45.1581H68.5126V51.7637H67.1156V43.9888H73.3111Z" fill="white"/>
<path d="M75.5131 51.7637H74.0098L76.7469 43.9888H78.4856L81.2265 51.7637H79.7232L77.6466 45.5833H77.5859L75.5131 51.7637ZM75.5624 48.7153H79.6624V49.8466H75.5624V48.7153Z" fill="white"/>
<path d="M81.7695 51.7637V43.9888H83.1779V47.2802H86.7806V43.9888H88.1928V51.7637H86.7806V48.4609H83.1779V51.7637H81.7695Z" fill="white"/>
<path d="M89.2436 43.9888H90.6406V49.2885H90.7128L94.3686 43.9888H95.6328V51.7637H94.2243V46.4678H94.1598L90.4926 51.7637H89.2436V43.9888Z" fill="white"/>
<path d="M96.6863 43.9888H98.0834V49.2885H98.1555L101.811 43.9888H103.076V51.7637H101.667V46.4678H101.603L97.9353 51.7637H96.6863V43.9888ZM100.634 41.9844H101.663C101.663 42.4273 101.503 42.7867 101.181 43.0625C100.862 43.3359 100.429 43.4725 99.8828 43.4725C99.3412 43.4725 98.9097 43.3359 98.5883 43.0625C98.2694 42.7867 98.1112 42.4273 98.1138 41.9844H99.1349C99.1349 42.1666 99.1906 42.3298 99.302 42.4741C99.4159 42.6158 99.6095 42.6867 99.8828 42.6867C100.151 42.6867 100.342 42.6158 100.456 42.4741C100.572 42.3324 100.632 42.1691 100.634 41.9844Z" fill="white"/>
<path d="M108.957 50.9285H107.72L106.186 48.6507V48.5748H107.499L108.957 50.9285ZM108.957 46.2666L107.499 48.6204H106.186V48.5444L107.72 46.2666H108.957ZM111.273 50.9285H110.035L108.502 48.6507V48.5748H109.815L111.273 50.9285ZM111.273 46.2666L109.815 48.6204H108.502V48.5444L110.035 46.2666H111.273Z" fill="white"/>
<path d="M115.146 44.8544H116.718C117.325 44.8544 117.864 44.9847 118.335 45.2454C118.806 45.5061 119.175 45.8731 119.444 46.3464C119.712 46.8171 119.846 47.3688 119.846 48.0016C119.846 48.6191 119.712 49.1594 119.444 49.6226C119.175 50.0857 118.806 50.4464 118.335 50.7045C117.864 50.9602 117.325 51.088 116.718 51.088H115.146C114.536 51.088 113.995 50.9614 113.521 50.7083C113.051 50.4527 112.681 50.0933 112.413 49.6302C112.145 49.167 112.01 48.6254 112.01 48.0053C112.01 47.3726 112.146 46.8209 112.417 46.3501C112.687 45.8769 113.058 45.5099 113.529 45.2492C114.002 44.986 114.541 44.8544 115.146 44.8544ZM115.146 46.0464C114.777 46.0464 114.457 46.1224 114.186 46.2742C113.917 46.4235 113.71 46.6437 113.563 46.9348C113.416 47.2258 113.343 47.5827 113.343 48.0053C113.343 48.4103 113.416 48.7532 113.563 49.0342C113.712 49.3151 113.923 49.5289 114.193 49.6757C114.464 49.8225 114.782 49.8959 115.146 49.8959H116.722C117.089 49.8959 117.405 49.8225 117.671 49.6757C117.939 49.5264 118.145 49.3113 118.29 49.0304C118.436 48.7469 118.51 48.404 118.51 48.0016C118.51 47.584 118.436 47.2296 118.29 46.9386C118.145 46.6475 117.939 46.4261 117.671 46.2742C117.405 46.1224 117.089 46.0464 116.722 46.0464H115.146ZM116.612 43.8522V52.0826H115.256V43.8522H116.612Z" fill="white"/>
<path d="M121.286 51.7637H119.783L122.52 43.9888H124.258L126.999 51.7637H125.496L123.419 45.5833H123.359L121.286 51.7637ZM121.335 48.7153H125.435V49.8466H121.335V48.7153Z" fill="white"/>
<path d="M133.832 46.6121H132.412C132.371 46.3793 132.297 46.173 132.188 45.9933C132.079 45.8111 131.944 45.6567 131.782 45.5301C131.62 45.4036 131.435 45.3087 131.228 45.2454C131.023 45.1796 130.801 45.1467 130.563 45.1467C130.141 45.1467 129.766 45.253 129.439 45.4656C129.113 45.6757 128.857 45.9844 128.673 46.3919C128.488 46.7969 128.395 47.2916 128.395 47.8763C128.395 48.471 128.488 48.9721 128.673 49.3796C128.86 49.7846 129.116 50.0908 129.439 50.2983C129.766 50.5033 130.139 50.6058 130.559 50.6058C130.792 50.6058 131.01 50.5755 131.212 50.5147C131.417 50.4514 131.601 50.3591 131.763 50.2376C131.927 50.1161 132.065 49.9668 132.177 49.7896C132.29 49.6125 132.369 49.41 132.412 49.1822L133.832 49.1898C133.779 49.5593 133.663 49.906 133.486 50.23C133.312 50.5539 133.083 50.8399 132.799 51.088C132.516 51.3335 132.184 51.5258 131.805 51.665C131.425 51.8017 131.004 51.87 130.54 51.87C129.857 51.87 129.247 51.7118 128.711 51.3955C128.174 51.0791 127.751 50.6223 127.443 50.025C127.134 49.4277 126.979 48.7115 126.979 47.8763C126.979 47.0385 127.135 46.3223 127.446 45.7276C127.758 45.1303 128.182 44.6734 128.718 44.3571C129.255 44.0407 129.862 43.8825 130.54 43.8825C130.973 43.8825 131.376 43.9433 131.748 44.0648C132.12 44.1862 132.451 44.3647 132.742 44.6C133.033 44.8329 133.272 45.1189 133.46 45.458C133.65 45.7946 133.774 46.1793 133.832 46.6121Z" fill="white"/>
<path d="M135.545 51.7637H134.042L136.779 43.9888H138.517L141.258 51.7637H139.755L137.678 45.5833H137.618L135.545 51.7637ZM135.594 48.7153H139.694V49.8466H135.594V48.7153Z" fill="white"/>
<path d="M141.296 53.6391V50.6134H141.817C141.991 50.4742 142.154 50.2781 142.306 50.025C142.458 49.7719 142.587 49.4252 142.694 48.9848C142.8 48.5444 142.873 47.975 142.914 47.2765L143.119 43.9888H148.088V50.6134H148.954V53.6315H147.602V51.7637H142.648V53.6391H141.296ZM143.457 50.6134H146.737V45.1695H144.387L144.265 47.2765C144.232 47.8054 144.179 48.2787 144.106 48.6963C144.032 49.1139 143.94 49.4821 143.829 49.801C143.717 50.1174 143.593 50.3882 143.457 50.6134Z" fill="white"/>
<path d="M149.453 50.9285L150.911 48.5748H152.224V48.6507L150.691 50.9285H149.453ZM149.453 46.2666H150.691L152.224 48.5444V48.6204H150.911L149.453 46.2666ZM151.791 50.9285L153.249 48.5748H154.563V48.6507L153.029 50.9285H151.791ZM151.791 46.2666H153.029L154.563 48.5444V48.6204H153.249L151.791 46.2666Z" fill="white"/>
</svg>
