<svg width="24" height="24" viewBox="0 0 24 24" fill="none" xmlns="http://www.w3.org/2000/svg">
<path d="M6.5 21.5L17.5 21.5C19.7091 21.5 21.5 19.7091 21.5 17.5L21.5 6.5C21.5 4.29086 19.7091 2.5 17.5 2.5L6.5 2.5C4.29086 2.5 2.5 4.29086 2.5 6.5L2.5 17.5C2.5 19.7091 4.29086 21.5 6.5 21.5Z" stroke="#6CAEFF" stroke-width="2" stroke-linecap="round" stroke-linejoin="round"/>
<path d="M12 3.5V20.5" stroke="#6CAEFF" stroke-width="2" stroke-linecap="round" stroke-linejoin="round"/>
<path d="M3 12H12" stroke="#6CAEFF" stroke-width="2" stroke-linecap="round" stroke-linejoin="round"/>
<path d="M12 3V12H3" stroke="#6CAEFF" stroke-width="2" stroke-linecap="round" stroke-linejoin="round"/>
<path d="M6 7.5H9" stroke="#6CAEFF" stroke-width="2" stroke-linecap="round" stroke-linejoin="round"/>
<path d="M7.5 9.00002V6" stroke="#6CAEFF" stroke-width="2" stroke-linecap="round" stroke-linejoin="round"/>
<path d="M17.5 17.75H15.5" stroke="#6CAEFF" stroke-width="2" stroke-linecap="round" stroke-linejoin="round"/>
<path d="M17.5 15.25H15.5" stroke="#6CAEFF" stroke-width="2" stroke-linecap="round" stroke-linejoin="round"/>
<path d="M12 20.5V3.5" stroke="#6CAEFF" stroke-width="2" stroke-linecap="round" stroke-linejoin="round"/>
<path d="M21 12H12" stroke="#6CAEFF" stroke-width="2" stroke-linecap="round" stroke-linejoin="round"/>
<path d="M6.375 15.375L8.62498 17.625" stroke="#6CAEFF" stroke-width="2" stroke-linecap="round" stroke-linejoin="round"/>
<path d="M6.375 17.625L8.625 15.375" stroke="#6CAEFF" stroke-width="2" stroke-linecap="round" stroke-linejoin="round"/>
<path d="M21 12H12V3" stroke="#6CAEFF" stroke-width="2" stroke-linecap="round" stroke-linejoin="round"/>
<path d="M17.5 7.5H15.5" stroke="#6CAEFF" stroke-width="2" stroke-linecap="round" stroke-linejoin="round"/>
</svg>
