<svg width="24" height="24" viewBox="0 0 24 24" fill="none" xmlns="http://www.w3.org/2000/svg">
<path d="M6 3H18C18.5304 3 19.0391 3.21071 19.4142 3.58579C19.7893 3.96086 20 4.46957 20 5V19C20 19.5304 19.7893 20.0391 19.4142 20.4142C19.0391 20.7893 18.5304 21 18 21H6C5.46957 21 4.96086 20.7893 4.58579 20.4142C4.21071 20.0391 4 19.5304 4 19V5C4 4.46957 4.21071 3.96086 4.58579 3.58579C4.96086 3.21071 5.46957 3 6 3Z" stroke="#6CAEFF" stroke-width="2" stroke-linecap="round" stroke-linejoin="round"/>
<path d="M8 10H16" stroke="#6CAEFF" stroke-width="2" stroke-linecap="round" stroke-linejoin="round"/>
<path d="M8 13H16" stroke="#6CAEFF" stroke-width="2" stroke-linecap="round" stroke-linejoin="round"/>
<path d="M11 7H8" stroke="#6CAEFF" stroke-width="2" stroke-linecap="round" stroke-linejoin="round"/>
<path d="M13 17H16" stroke="#6CAEFF" stroke-width="2" stroke-linecap="round" stroke-linejoin="round"/>
<path d="M8 16.7598L8.66378 17.3563L10 16.1562" stroke="#6CAEFF" stroke-width="2" stroke-linecap="round" stroke-linejoin="round"/>
</svg>
