<svg width="24" height="24" viewBox="0 0 24 24" fill="none" xmlns="http://www.w3.org/2000/svg">
<path d="M12 20C11.6957 19.3914 11.228 18.8796 10.6492 18.5219C10.0704 18.1642 9.40341 17.9747 8.723 17.9747H5.519C5.11614 17.9747 4.72979 17.8146 4.44492 17.5298C4.16005 17.2449 4.00001 16.8586 4 16.4557V6.519C4 6.11614 4.16004 5.72977 4.4449 5.4449C4.72977 5.16004 5.11614 5 5.519 5H7.94937C9.05366 5.06922 10.0893 5.5594 10.8429 6.36954C11.5966 7.17968 12.0107 8.24803 12 9.35444V20Z" stroke="#6CAEFF" stroke-width="2" stroke-linecap="round" stroke-linejoin="round"/>
<path d="M12.0002 20C12.3045 19.3914 12.7722 18.8796 13.351 18.5219C13.9298 18.1642 14.5968 17.9747 15.2772 17.9747H18.4812C18.8841 17.9747 19.2704 17.8147 19.5553 17.5298C19.8401 17.2449 20.0002 16.8586 20.0002 16.4557V6.519C20.0002 6.11615 19.8402 5.72979 19.5553 5.44493C19.2705 5.16006 18.8841 5.00002 18.4813 5H16.0509C14.9466 5.06921 13.9109 5.5594 13.1573 6.36953C12.4037 7.17967 11.9895 8.24803 12.0002 9.35444V20Z" stroke="#6CAEFF" stroke-width="2" stroke-linecap="round" stroke-linejoin="round"/>
</svg>
