<svg width="24" height="24" viewBox="0 0 24 24" fill="none" xmlns="http://www.w3.org/2000/svg">
<path d="M21 9V5C21 4.46957 20.7893 3.96086 20.4142 3.58579C20.0391 3.21071 19.5304 3 19 3H5C4.46957 3 3.96086 3.21071 3.58579 3.58579C3.21071 3.96086 3 4.46957 3 5V19C3 19.5304 3.21071 20.0391 3.58579 20.4142C3.96086 20.7893 4.46957 21 5 21H11" stroke="#6CAEFF" stroke-width="2" stroke-linecap="round" stroke-linejoin="round"/>
<path d="M7 8H17" stroke="#6CAEFF" stroke-width="2" stroke-linecap="round" stroke-linejoin="round"/>
<path d="M7 12H10" stroke="#6CAEFF" stroke-width="2" stroke-linecap="round" stroke-linejoin="round"/>
<path d="M7 16H9" stroke="#6CAEFF" stroke-width="2" stroke-linecap="round" stroke-linejoin="round"/>
<path d="M18.7637 18.0073C19.4279 17.6198 19.946 17.0243 20.2379 16.3129C20.5298 15.6014 20.5793 14.8137 20.3787 14.0713C20.1781 13.3289 19.7386 12.6733 19.1281 12.2057C18.5176 11.7381 17.7701 11.4846 17.0011 11.4844C16.2321 11.4841 15.4844 11.7371 14.8736 12.2043C14.2628 12.6715 13.8229 13.3268 13.6218 14.0691C13.4207 14.8113 13.4697 15.5991 13.7611 16.3107C14.0525 17.0224 14.5702 17.6182 15.2342 18.0062" stroke="#6CAEFF" stroke-width="2" stroke-linecap="round" stroke-linejoin="round"/>
<path d="M15.2344 18.0078V19.5519C15.2344 19.9365 15.3871 20.3053 15.6591 20.5772C15.931 20.8491 16.2998 21.0019 16.6844 21.0019H17.3139C17.6985 21.0019 18.0673 20.8491 18.3392 20.5772C18.6111 20.3053 18.7639 19.9365 18.7639 19.5519V18.009" stroke="#6CAEFF" stroke-width="2" stroke-linecap="round" stroke-linejoin="round"/>
<path d="M15.2344 18.0781H18.7639" stroke="#6CAEFF" stroke-width="2" stroke-linecap="round" stroke-linejoin="round"/>
</svg>
